<?xml version="1.0" encoding="utf-8"?>
<!-- Generator: Adobe Illustrator 19.1.0, SVG Export Plug-In . SVG Version: 6.00 Build 0)  -->
<svg version="1.1" xmlns="http://www.w3.org/2000/svg" xmlns:xlink="http://www.w3.org/1999/xlink" x="0px" y="0px"
	 viewBox="0 0 239.6 232.7" style="enable-background:new 0 0 239.6 232.7;" xml:space="preserve">
<style type="text/css">
	.st0{fill:#9F2A26;}
	.st1{fill:#FFFFFF;stroke:#000000;stroke-width:0.5;stroke-miterlimit:10;}
	.st2{fill:#DA322D;}
	.st3{fill:#E8E8E8;stroke:#000000;stroke-width:0.5;stroke-miterlimit:10;}
	.st4{fill:#C1877A;stroke:#000000;stroke-width:0.5;stroke-miterlimit:10;}
	.st5{fill:none;stroke:#000000;stroke-miterlimit:10;}
	.st6{fill:none;}
	.st7{fill:#D18773;}
	.st8{fill:#B36E33;stroke:#000000;stroke-miterlimit:10;}
	.st9{fill:#FFFFFF;stroke:#000000;stroke-miterlimit:10;}
	.st10{fill:#D18773;stroke:#000000;stroke-width:0.5;stroke-miterlimit:10;}
	.st11{fill:#E8E8E8;stroke:#E8E8E8;stroke-width:0.5;stroke-miterlimit:10;}
	.st12{fill:#C1BFBF;}
	.st13{fill:#EA8A60;stroke:#000000;stroke-miterlimit:10;}
	.st14{fill:none;stroke:#020202;stroke-linecap:round;stroke-linejoin:round;stroke-miterlimit:10;}
	.st15{fill:#E8E8E8;stroke:#000000;stroke-width:0.5;stroke-linecap:round;stroke-miterlimit:10;}
	.st16{fill:#E8E8E8;stroke:#020202;stroke-width:0.5;stroke-miterlimit:10;}
	.st17{stroke:#053E6D;stroke-width:2;stroke-miterlimit:10;}
	.st18{fill:#FFFFFF;}
	.st19{fill:none;stroke:#000000;stroke-width:0.5;stroke-miterlimit:10;}
	.st20{fill:#E8E6E6;}
	.st21{fill:#E8E8E8;}
	.st22{fill:#FFFFFF;stroke:#E8E8E8;stroke-width:0.5;stroke-linecap:round;stroke-linejoin:round;stroke-miterlimit:10;}
	.st23{fill:#FFFFFF;stroke:#DA322D;stroke-miterlimit:10;}
	.st24{fill:#A22522;}
	.st25{display:none;}
	.st26{display:inline;fill:#F9F9F9;stroke:#5D5D5D;stroke-width:0.5;stroke-miterlimit:10;}
	.st27{display:inline;fill:none;stroke:#E8E8E8;stroke-width:0.5;stroke-miterlimit:10;}
	.st28{display:inline;}
</style>
<g id="Calque_1">
	<path class="st0" d="M259.3,231.9c-0.5,0-1,0.1-1.5,0.1c0.4-0.6,1-0.7,1.6-0.3C259.4,231.7,259.3,231.9,259.3,231.9z"/>
	<path class="st0" d="M261.2,231c-0.2,0-0.4,0-0.6,0c0,0,0.3-0.3,0.3-0.3L261.2,231z"/>
</g>
<g id="Calque_2">
</g>
<g id="Calque_3">
	<path class="st1" d="M128.8,443.6c0,7.3-5.9,13.2-13.2,13.2s-13.2-5.9-13.2-13.2c0-7.3,6.7-6.9,14-6.3
		C124.5,438,128.8,439.2,128.8,443.6z"/>
	<path class="st2" d="M223.4,366.9v229.4c0,1.1-0.9,2-2,2h-236c-1.1,0-2-0.9-2-2V366.9c0-1.1,0.9-2,2-2h236
		C222.5,364.9,223.4,365.8,223.4,366.9z"/>
	<g>
		<path class="st1" d="M121,403.1c0,0,4-7.9,6.3-13.1c1-2.1,1.4-3.9,1.5-4.2c0.3-1.1,0.7-4.1,3.1-0.5c2.4,3.6,8.3,15.4,8.3,15.4
			s1.4,1.9-0.5,4.1c-1.1,1.3-2.8,2.7-3.9,4c-1.5,1.7-2.1,3.3-2.1,3.3L121,403.1z"/>
		<path class="st3" d="M126.5,407l-5.5-3.9c0,0,6.1-12.5,6.5-13.4s1.3-3.5,1.3-3.5s0.1,1,0.4,1.6c1.6,3.9,4.6,15.9,5,17.8
			c0.5,2-2.6,4.8-2.6,4.8L126.5,407z"/>
		<path class="st4" d="M135.4,407.8c0,0,1.1-0.9,2.7-3.1c1.6-2.2,0.4-4.5,0.4-4.5s-6.8-13.6-7.8-13.5c-0.9,0.1-0.2,2.1-0.2,2.1
			s4.5,13.7,5,15.7C135.9,406.4,135.4,407.8,135.4,407.8L135.4,407.8z"/>
	</g>
	<path class="st0" d="M223.4,508.6v87.7c0,1.1-0.9,2-2,2h-160c0,0,0,0-0.1,0l-34.4-29.7l155.8-75.5L223.4,508.6z"/>
	<g>
		<path class="st1" d="M187.5,488.8c0,0.7-1.9-3.9-2.5-1.4c-0.1,0.6,0.5,6.7,0.2,7.4c-0.3,0.8-2.3-2.1-2.5-1.8
			c-3,4.5,0.1,12,0.2,12.9c0,0,0,0.1,0,0.2c0,0-0.1,0-0.1,0c2.8,8.6,10.3,23.9,12.3,28.8c0.5,1.2-1.3,0-1.4-0.1
			c0.1,0.2,1.5,3.4,1.4,4.9c0,0.5-1.6-1.4-1.6-0.8c-0.1,2.4-0.4,5.5-1,8.5c-0.5,2.9-1.3,5.6-2.5,7.2c-0.2,0.3-0.5,0.6-0.7,0.9
			c-0.5,0.5-1.2,1.1-2,1.8c0,0,0,0,0,0c-5.9,4.7-18.1,12.8-18.1,12.8h-61.4l-81.3-1.7c0,0-8.9-3.4-15.4-8c-3.5-2.5-6.3-5.3-6.8-8.2
			c-0.1-0.8-0.2-1.6-0.2-2.4v-0.3c0-1,0.1-2,0.2-3.1c0,0,0-0.1,0-0.2c1.1-8.4,5.1-19.3,5.2-25.1c0.1-5.1-0.8-17-1.4-23.9
			c-0.1-0.7-1.9,3.2-2,2.6c-0.2-1.9,1.4-7.5,1.5-7.8c-0.1,0.1-3.2,2.4-2.8,0.8c2-7.8,11.9-34.2,16.8-42.4c5.8-9.6,11-17.6,11.3-18.1
			c-0.2,0.1-3,1.4-3.7,1.5c1.8-1.6,5.3-3,5.8-3.2c-0.5,0.1-4.6,0.8-5.3,1c1.1-1.1,3.7-2.2,3.7-2.2s-2.1-0.3-4.2,0.1
			c0.3-0.2,7.1-2.8,7.1-2.8s-4.8,0.2-5.2-0.2c0.9,0.2,17.5-13.6,17.5-13.6s15.4-9.9,23.2-12.5c0,0,14.8-1.2,21.6-1.5
			c6-0.3,20.1-0.1,23.1,0c0.4,0,0.7,0.1,1,0.3c3.8,2.4,29.5,18.4,32.4,19.5c1.5,0.6,9.1,5.2,7.8,4.6l-3.5,0c0,0,3.1,0.7,3.9,1.7
			c-0.9-0.2-4.3,0-4.3,0s5.3,3.2,12.9,6.2c-4-0.1-6.9-0.8-6.9-0.8l6.9,5.4c0,0,12.9,25.6,13.6,31.1
			C181.1,472.3,187.5,487.8,187.5,488.8z"/>
	</g>
	<line class="st5" x1="62.6" y1="67.4" x2="62.3" y2="110.9"/>
	<path class="st2" d="M239.3,2v228.7c0,1.1-0.9,2-2,2H2c-1.1,0-2-0.9-2-2V2c0-1.1,0.9-2,2-2h235.3C238.4,0,239.3,0.9,239.3,2z"/>
	<path class="st0" d="M239.3,145.1v85.6c0,1.1-0.9,2-2,2H75.1c-0.5,0-0.9-0.2-1.3-0.5l-34.4-29.7l174.1-81.2l25.1,22.3
		C239,144,239.3,144.6,239.3,145.1z"/>
	<path class="st6" d="M239.6,7.9v216.9c0,4.4-3.5,7.9-7.9,7.9H8.2c-4.4,0-7.9-3.5-7.9-7.9V7.9C0.3,3.6,3.9,0,8.2,0h223.4
		C236,0,239.6,3.6,239.6,7.9z"/>
	<path class="st1" d="M133.5,37.1c0,0,4-7.9,6.3-13.1c1-2.1,1.4-3.9,1.5-4.2c0.3-1.1,0.7-4.1,3.1-0.5c2.4,3.6,8.3,15.4,8.3,15.4
		s1.4,1.9-0.5,4.1c-1.1,1.3-2.8,2.7-3.9,4c-1.5,1.7-2.1,3.3-2.1,3.3L133.5,37.1z"/>
	<path class="st3" d="M139,40.9l-5.5-3.9c0,0,6.1-12.5,6.5-13.4c0.4-0.9,1.3-3.5,1.3-3.5s0.1,1,0.4,1.6c1.6,3.9,4.6,15.9,5,17.8
		c0.5,2-2.6,4.8-2.6,4.8L139,40.9z"/>
	<path class="st4" d="M147.9,41.8c0,0,1.1-0.9,2.7-3.1c1.6-2.2,0.4-4.5,0.4-4.5s-6.8-13.6-7.8-13.5c-0.9,0.1-0.2,2.1-0.2,2.1
		s4.5,13.7,5,15.7C148.4,40.4,147.9,41.8,147.9,41.8L147.9,41.8z"/>
	<path class="st7" d="M54.5,158.1c0,0,3.4,3.2,4.6,6c1.2,2.8,0.6,8.2,3.8,8.2c3.2,0,10.6-1.8,12-4.4c1.4-2.6-1-6.8-5.4-7.2
		c-4.4-0.4-4.4,0.2-6.6-4.4c-2.2-4.6-1.4-3-1.4-3L54.5,158.1z"/>
	<path class="st8" d="M196.2,150"/>
	<path class="st1" d="M215,122.8c0,0.7-0.9-3.9-1.5-1.4c-0.1,0.6-0.5,4.7-0.8,5.4c-0.3,0.8-0.4-1.8-0.9-0.8c-0.2,0.4-0.4,0.7-0.6,1
		c-3,4.6-10,7-14,10.1c-1.6,1.2-1.9,1.9-1.8,2.8c0,0,0,0.1,0,0.2c0,0-0.1,0-0.1-0.1c2.8,8.6,10.3,23.9,12.3,28.8
		c0.5,1.2-1.3,0-1.4-0.1c0.1,0.2,1.5,3.4,1.4,4.9c0,0.5-1.5-1.4-1.6-0.8c-0.1,2.4-0.4,5.5-1,8.5c-0.5,2.9-1.3,5.6-2.5,7.2
		c-0.2,0.3-0.5,0.6-0.7,0.9c-0.5,0.5-1.2,1.1-2,1.8c0,0,0,0,0,0c-5.9,4.7-18.1,12.8-18.1,12.8h-61.4L39,202.3c0,0-8.9-3.4-15.4-8
		c-3.5-2.5-6.3-5.3-6.8-8.2c-0.1-0.8-0.2-1.6-0.2-2.4v-0.3c0-1,0.1-2,0.2-3.1c0,0,0-0.1,0-0.2c1.1-8.4,5.1-19.3,5.2-25.1
		c0.1-5.1-0.8-17-1.4-23.9c-0.1-0.7-1.9,3.2-2,2.6c-0.2-1.9,1.4-7.5,1.5-7.8c-0.1,0.1-3.2,2.4-2.8,0.8c2-7.8,11.8-34.2,16.8-42.4
		c5.8-9.6,11-17.6,11.3-18.1c-0.2,0.1-3,1.4-3.7,1.5c1.8-1.6,5.3-3,5.8-3.2c-0.5,0.1-4.6,0.8-5.3,1c1.1-1.1,3.7-2.2,3.7-2.2
		s-2.1-0.3-4.2,0.1c0.3-0.2,7.1-2.8,7.1-2.8S44,61,43.7,60.5c0.9,0.2,17.5-13.6,17.5-13.6S76.6,37,84.4,34.4c0,0,14.8-1.2,21.5-1.5
		c6-0.3,20.1-0.1,23.1,0c0.4,0,0.7,0.1,1,0.3c3.8,2.4,29.5,18.4,32.4,19.5c3.1,1.2,10.3,4.6,10.3,4.6h-6l3.9,1.7h-4.3l12.9,6.1
		l-9-2.6l9,7.2l15.3,30.3c3.3,0.5,7.2,2.1,8.7,2c2.3-0.2,7.1,2.7,9.1,4.4C214.3,108.2,215,121.7,215,122.8z"/>
	<path class="st9" d="M181.6,135.7c-0.1,0-0.2,0-0.3,0.1C181.4,135.7,181.5,135.7,181.6,135.7z"/>
	<path class="st10" d="M197.5,110.8c0,0,0-4.8-1.1-4.5c-1.7,0.4-3.8-2.4-5.2-3.5c-0.6-0.5-0.8-1.2-0.6-2c0.4-1.5,1.1-4.2,3.4-5.3
		c2.9-1.4,3.9-4.4,7.5-2.3c3,1.8,3,2,3,4.5c0,1.8-2.3,2.8-2.4,3.9c-0.1,0.6,0.4,1.1,1.2,2.4C205.8,108.3,197.5,110.8,197.5,110.8z"
		/>
	<path class="st9" d="M175.3,151"/>
	<path class="st9" d="M60.8,201"/>
	<path class="st11" d="M196.9,112.4c-2.3-4-5.4-6.5-9-5.9c-3.5,0.6-9.4,2.9-9.6,3c0,0,0,0,0,0c0,0-0.1,0.1-0.1,0.1
		c-0.4,0,0.1,0.7-0.4,0.6c-0.3,0-1.4-0.8-1.7-0.8c-0.2,0-0.2,0.3-0.3,0.3c-6.8-1.6-13.4-9.2-17.1-10.7c-4.3-1.7-7.6-3.2-13.3-0.8
		c-5.8,2.4-12.5-5-14.8-5.3c-2.3-0.3-9.3-1.9-12.8-1.7c-3.6,0.2-12,0.6-12,0.6s-18.1,0.7-20.3,3.8c-2.3,3.1-8.1,5.9-11.1,7
		c-10.4,4-16.2,14.9-16.7,22.6c-0.1,0.8,0,1.5,0,2.3c3.9,3.5,6,8.9,7.7,14.4c2.9,9.2-4.9,15.5-14.4,14.2c-9.5-1.4-12.7-2.2-12.7-2.2
		s-1.6,1.6-1.9,4.8c-0.2,2.5,0.3,5.9,2.9,10.3c2.9,5,12.7,12.8,21.8,19.6c0.2,0,0.3,0,0.3,0l42.3,11.9l32.9-5.9l30.2-13.6
		c0,0,1.3-0.8,3.2-2c0,0,0,0,0,0c0.3-0.2,0.5-0.4,0.8-0.6c9.2-7.6,5.6-18.5,4.9-29.9c-0.3-5.9-0.6-8.7-0.8-10.3
		c-0.2-1.5,0.1-4.1,2.3-5.5c0.5-0.3,12.2-5.4,14.7-7.3C194.4,123.6,199.2,116.4,196.9,112.4z"/>
	<path class="st12" d="M167.1,180.5c-3.4,2.2,0.4-0.3,0.4-0.2c-11.5,7.9-37.4,22.1-39.9,23.4l-13.2,0l-35-0.8c0,0-8.4-7.9-17.7-14.7
		c5.6,0.2,40.6,12.4,58.7,8.2c17.8-4.1,30.3-8.6,40.5-13.3C162.8,182.1,165.2,181.3,167.1,180.5z"/>
	<path class="st13" d="M105.9,89.5c-0.2-0.5,0.2-1,0.6-1c0,0,1.6-0.3,3.1-0.3c1.5,0,3.1,0.2,3.1,0.2c0.5,0.1,0.8,0.6,0.6,1.1
		l-2.7,4.7c-0.5,0.8-1.6,0.8-2.1,0L105.9,89.5z"/>
	<g>
		<path class="st14" d="M97.9,94.7c0,0-4.1,0.1-4.1,3.1s3,3.4,7.5,2.9c5.1-0.5,8.4-2.3,8.4-5.4"/>
		<path class="st14" d="M109.2,99.3c0,0,3.2,1.7,8.6,1.7c4.2,0,5.6-2,5.9-3.2c0.3-1.7-1.6-4.6-3.8-3.2"/>
	</g>
	<path class="st1" d="M81.9,34.1c0,0-0.3-2.7-1.3-5.6s-2.9-5.9-3.2-10.1s-3.3-4.2-4.9-3.8c-1.7,0.4-3.9,1.6-6.4,4.1
		c-2.7,2.6-4.4,4.4-5.1,7.6s-0.7,3.6-0.2,4.9c0.5,1.3,1.7,4.1,3.7,5.5c1.9,1.4,2.7,1.3,3.5,2.3s1.8,3.6,1.8,3.6l13.1-6L81.9,34.1z"
		/>
	<path class="st4" d="M62.2,29.5c-0.2-2.8,0.8-6.3,5.1-9.6c4.3-3.3,5.4-4.2,6.9-3.5s1.9,6.2,0,10.4c-2,4.4-4,10.6-4,10.6
		S62.4,31.8,62.2,29.5z"/>
	<path class="st15" d="M72.1,41.1c0,0-0.9-2.9-0.4-3.8c1.9-3.1,2.8-6.3,3.9-10.1c1.2-3.9,1.7-8.5,1.7-8.5s0.7,3,1.1,4.1
		c0.4,1,2.4,6.2,2.6,6.8c0.3,1,0.9,4.2,0.9,4.2l1.1,2.8l-10.7,5L72.1,41.1z"/>
	<path class="st16" d="M68.8,37.9c-1.1-0.6-4.5-2.4-5.6-3.8c-1.1-1.2-2.7-5.2-2.7-5.2s-0.6,2.7,1.2,5.6c1.1,1.8,3.3,3.6,5.6,4.5
		c1.1,0.4,1.6,4.2,1.6,4.2l2.5-0.9C71.4,42.3,69.9,38.6,68.8,37.9z"/>
	<path class="st1" d="M99.4,79.9c0,5.8-4.7,10.5-10.5,10.5c-5.8,0-10.5-4.7-10.5-10.5c0-3,2.9-4.7,8.8-5.9
		C92.8,72.9,99.4,74.1,99.4,79.9z"/>
	<path class="st1" d="M137.9,77.8c0,5.8-4.7,10.5-10.5,10.5s-10.5-4.7-10.5-10.5c0-5.8,5.3-5.5,11.1-5
		C134.5,73.4,137.9,74.4,137.9,77.8z"/>
	<circle class="st17" cx="88.9" cy="81.9" r="7.1"/>
	<ellipse class="st18" cx="93.5" cy="79.7" rx="3.2" ry="2.7"/>
	<ellipse class="st18" cx="89.1" cy="82.1" rx="1" ry="1.2"/>
	<circle class="st17" cx="127" cy="80.5" r="7.1"/>
	<ellipse class="st18" cx="132.3" cy="78.2" rx="3.2" ry="2.7"/>
	<ellipse class="st18" cx="128" cy="80.6" rx="1" ry="1.2"/>
	<path class="st19" d="M137.9,77.7c0,5.8-4.7,10.5-10.5,10.5s-10.5-4.7-10.5-10.5c0-5.8,5.3-5.5,11.1-5
		C134.5,73.3,137.9,74.3,137.9,77.7z"/>
	<path class="st20" d="M114.2,203.5l8.2,0.2h-2.3L38.9,202c0,0-8.9-3.4-15.4-8c0,0,7.4-10.3,15.8-9.3c7.6,0.9,19.7,2.7,21.8,3
		c0.1,0.1,0.3,0.2,0.4,0.3c9.3,6.8,18.3,14.9,18.3,14.9L114.2,203.5z"/>
	<path class="st20" d="M204.9,181.1c-0.5,2.9-1.3,5.6-2.5,7.2c-0.2,0.3-0.5,0.6-0.7,0.9c-0.5,0.5-1.2,1.1-2,1.8c0,0,0,0,0,0
		c-5.9,4.7-18.1,12.8-18.1,12.8h-54.2c2.5-1.4,28-15.5,39.5-23.3c0,0,0,0,0,0c0,0,0,0,0,0c1.2-0.8,2.2-1.5,3-2.2c0,0,0,0,0,0
		c4.7-2.8,13.2-7.5,16.7-7.5c4.9,0,14.1,0.7,17.7,8.6C204.6,179.8,204.8,180.4,204.9,181.1z"/>
	<path class="st12" d="M73.5,161.2l-6,3.1c-1.4,0.7-3.2,0.2-4-1.2c-1.2-2.2-3.1-5.2-4.8-6.4c-5.5,1.2-20.8-1-21.9-1.3
		c0.3-3.2,1.4-2.5,1.4-2.5s3.3,0.9,12.7,2.2c9.4,1.4,9.6-5.1,9.6-5.1s7.2,4.7,10.1,4.7c1.1,0,2.3,0.6,3.4,1.4
		C75.7,157.4,75.5,160.1,73.5,161.2z"/>
	<path class="st10" d="M54.8,148.5c-0.4,0.4-0.2,1.1,0.4,1.3c1.3,0.4,3.4,1.5,5.2,4.4c2.2,3.6,3.8,6,4.4,7c0.2,0.3,0.7,0.5,1,0.3
		c0.3-0.2,1.4-0.9,2.1-1c1.1-0.2,2.1-1.5,3.4-1.8c1-0.2,1.7-1.5,2.3-1.8c0.8-0.4,2.1-1.4,1.8-1.8c-2.3-2.9-10-4.5-11.3-5.1
		c-0.1-0.1-3.9-6-3.9-6c-0.3-0.4-0.9-0.4-1.2-0.1L54.8,148.5z"/>
	<g>
		<path class="st18" d="M50.9,150c0,0,7.7,5.2,6.3,2.7c-1.4-2.5-1-4.8-1.2-6c-0.2-1.2,1.4,1.8,1.9,2.2c0.5,0.3,1.2-4.8,1.2-4.8
			s2,0.5,1.9,3.1c1.6-4.4,0-7.6,0-7.6"/>
		<path class="st21" d="M51,149.8c1.6,1,3.2,2,4.9,2.8c0.4,0.2,0.9,0.4,1.2,0.4c0,0,0.1,0,0.1,0c0,0,0,0.1,0,0c0,0,0-0.1-0.1-0.2
			l-0.3-0.6c-0.4-0.9-0.7-1.8-0.8-2.8c-0.1-1-0.1-1.9-0.2-2.8c0-0.1,0-0.1,0-0.2c0,0,0-0.1,0.1-0.3c0,0,0.1-0.1,0.2-0.1
			c0,0,0.1,0,0.1,0c0.1,0,0.1,0,0.1,0.1c0.2,0.1,0.2,0.2,0.3,0.3c0.2,0.2,0.3,0.4,0.4,0.6c0.3,0.4,0.5,0.8,0.8,1.1
			c0.1,0.1,0.1,0.2,0.2,0.2c0,0,0.1,0.1,0.1,0.1l0,0l0,0c0,0-0.1-0.1-0.1,0l0,0l0,0c-0.1,0-0.2,0-0.2,0c0,0,0.2-0.3,0.2-0.5
			c0.1-0.4,0.2-0.9,0.3-1.3c0.2-0.9,0.3-1.8,0.5-2.8l0,0l0-0.3l0.3,0.1c0.2,0.1,0.3,0.1,0.5,0.2c0.2,0.1,0.3,0.2,0.4,0.3
			c0.3,0.2,0.5,0.5,0.7,0.8c0.2,0.3,0.3,0.6,0.4,1c0.1,0.3,0.1,0.7,0.1,1l-0.4-0.1c0.2-0.6,0.4-1.2,0.5-1.8c0.1-0.6,0.2-1.3,0.2-1.9
			c0-1.3-0.2-2.6-0.7-3.7l0.2-0.1c0.5,1.2,0.7,2.5,0.8,3.8c0,0.7-0.1,1.3-0.2,2c-0.1,0.6-0.3,1.3-0.5,1.9l-0.4,1.2l0-1.2
			c0-0.3,0-0.6-0.1-0.9c-0.1-0.3-0.2-0.6-0.3-0.8c-0.2-0.3-0.4-0.5-0.6-0.7c-0.1-0.1-0.2-0.2-0.4-0.2c-0.1-0.1-0.3-0.1-0.4-0.2
			l0.3-0.2l0,0c-0.1,0.9-0.3,1.9-0.4,2.8c-0.1,0.5-0.2,0.9-0.3,1.4c-0.1,0.2-0.1,0.5-0.4,0.8c0,0,0,0-0.1,0.1c-0.1,0-0.2,0-0.2,0
			l0,0l0,0l-0.1,0l0,0l0,0c-0.1-0.1-0.1-0.1-0.2-0.2c-0.1-0.1-0.2-0.2-0.2-0.3c-0.3-0.4-0.6-0.8-0.8-1.2c-0.1-0.2-0.3-0.4-0.4-0.6
			c-0.1-0.1-0.2-0.2-0.2-0.2c0,0,0,0,0,0c0,0,0.1,0,0.1,0c0,0,0.1,0,0.1-0.1c0.1-0.1,0-0.1,0-0.1c0,0,0,0.1,0,0.1
			c0.1,0.5,0.1,1,0.1,1.4c0,0.5,0,0.9,0.1,1.4c0.1,0.9,0.4,1.8,0.7,2.6l0.3,0.6c0.1,0.1,0.1,0.2,0.1,0.5c0,0.1-0.1,0.3-0.2,0.3
			c-0.1,0.1-0.2,0.1-0.3,0.1c-0.6-0.1-1-0.3-1.4-0.5c-1.7-0.9-3.3-1.9-4.8-3L51,149.8z"/>
	</g>
	<path class="st11" d="M134.9,156c0,0,1.1,1.6,1.3,4.8c0.2,2.5-0.2,5.9-2.1,10.3"/>
	<path class="st7" d="M42.1,524.1c0,0,3.4,3.2,4.6,6c1.2,2.8,0.6,8.2,3.8,8.2s10.6-1.8,12-4.4c1.4-2.6-1-6.8-5.4-7.2
		c-4.4-0.4-4.4,0.2-6.6-4.4c-2.2-4.6-1.4-3-1.4-3L42.1,524.1z"/>
	<path class="st8" d="M183.8,516"/>
	<path class="st9" d="M169.2,501.7c-0.1,0-0.2,0-0.3,0.1C169,501.7,169.1,501.7,169.2,501.7z"/>
	<path class="st9" d="M162.8,517"/>
	<path class="st9" d="M48.3,567"/>
	<path class="st11" d="M163.8,517.1c-0.1-0.3-0.4-0.4-1-0.4c-2.7,0.1-9.9,3.2-12.4,3.9c-2.9,0.8-7.6,0.2-12-1.6
		c-0.8-0.3-1.7-2.9-2.3-3.5c-2.6-2.4-3.3-4.8-1.5-9.7c1.2-3.3,1.7-3.9,4.9-6.9c5.3-4.8,11.8-5.9,12-7.8c1.9-16.6-4.7-21.1-8.4-22.6
		c-4.3-1.7-8-4.9-13.3-4.9c-6.2,0.1-9.5-5-11.8-5.3c-2.3-0.3-9.3-1.9-12.8-1.7c-3.6,0.2-12,0.6-12,0.6s-18.1,0.7-20.3,3.8
		c-2.3,3.1-8.1,5.9-11.1,7c-10.4,4-16.2,14.9-16.7,22.6c-0.1,0.8,0,1.5,0,2.3c3.9,3.5,6,8.9,7.7,14.4c2.9,9.2-4.9,15.6-14.4,14.2
		c-9.5-1.4-12.7-2.2-12.7-2.2s-1.6,1.6-1.9,4.8c-0.2,2.5,0.3,5.9,2.9,10.3c2.9,5,12.7,12.8,21.8,19.6c0.2,0,0.3,0.1,0.3,0.1
		L91.2,566l32.9-5.9l30.2-13.6c0,0,1.3-0.8,3.2-2c0,0,0,0,0,0c0.3-0.2,0.5-0.4,0.8-0.6C167.5,536.2,164.2,518.8,163.8,517.1z"/>
	<path class="st13" d="M93.5,455.5c-0.2-0.5,0.2-1,0.6-1c0,0,1.6-0.3,3.1-0.3c1.5,0,3.1,0.2,3.1,0.2c0.5,0.1,0.8,0.6,0.6,1.1
		l-2.7,4.7c-0.5,0.8-1.6,0.8-2.1,0L93.5,455.5z"/>
	<g>
		<path class="st14" d="M85.5,460.7c0,0-4.1,0.1-4.1,3.1c0,2.9,3,3.4,7.5,2.9c5.1-0.5,8.4-2.3,8.4-5.4"/>
		<path class="st14" d="M96.8,465.4c0,0,3.2,1.7,8.6,1.7c4.2,0,5.6-2,5.9-3.2c0.3-1.7-1.6-4.6-3.8-3.2"/>
	</g>
	<path class="st1" d="M68.3,401.2c0,0-0.3-2.3-1.1-4.8c-0.8-2.5-2.4-5-2.7-8.6c-0.3-3.6-2.8-3.5-4.2-3.2c-1.4,0.3-3.3,1.4-5.5,3.5
		c-2.3,2.2-3.8,3.8-4.3,6.4s-0.6,3-0.1,4.1s1.5,3.5,3.1,4.7c1.6,1.2,2.3,1.1,3,2c0.8,0.9,1.5,3.1,1.5,3.1l11.1-5.1L68.3,401.2z"/>
	<path class="st4" d="M51.5,397.3c-0.2-2.4,0.7-5.4,4.3-8.2c3.6-2.8,4.6-3.6,5.9-3c1.3,0.5,1.6,5.3,0,8.8c-1.7,3.7-3.4,9-3.4,9
		S51.7,399.2,51.5,397.3z"/>
	<path class="st15" d="M59.9,407.2c0,0-0.8-2.5-0.3-3.2c1.6-2.6,2.4-5.3,3.3-8.6c1-3.4,1.5-7.2,1.5-7.2s0.6,2.6,0.9,3.5
		c0.3,0.9,2,5.3,2.2,5.8c0.2,0.8,0.8,3.5,0.8,3.5l0.9,2.4l-9.1,4.2L59.9,407.2z"/>
	<path class="st16" d="M57.1,404.5c-0.9-0.5-3.8-2.1-4.8-3.2c-0.9-1.1-2.3-4.5-2.3-4.5s-0.5,2.3,1,4.8c0.9,1.5,2.8,3.1,4.8,3.8
		c1,0.4,1.4,3.5,1.4,3.5l2.1-0.8C59.3,408.2,58,405,57.1,404.5z"/>
	<path class="st22" d="M56,410.1c2-2.9,6.5-2.6,4-4.8c3.1,1.5,3.6,0.9,2.7-2.4c0.9,3.2,2.1,2.4,3.8-1.8c-1,4.1,3.8,1.5,4,2.1"/>
	<path class="st1" d="M86.9,445.9c0,5.8-4.7,10.5-10.5,10.5c-5.8,0-10.5-4.7-10.5-10.5c0-3,2.9-4.7,8.8-5.9
		C80.4,438.9,86.9,440.1,86.9,445.9z"/>
	<path class="st1" d="M125.5,443.9c0,5.8-4.7,10.5-10.5,10.5c-5.8,0-10.5-4.7-10.5-10.5c0-5.8,5.3-5.5,11.1-5
		C122.1,439.4,125.5,440.4,125.5,443.9z"/>
	<circle class="st17" cx="76.5" cy="448" r="7.1"/>
	<ellipse class="st18" cx="81" cy="445.7" rx="3.2" ry="2.7"/>
	<ellipse class="st18" cx="76.7" cy="448.1" rx="1" ry="1.2"/>
	<path class="st19" d="M125.5,443.8c0,5.8-4.7,10.5-10.5,10.5c-5.8,0-10.5-4.7-10.5-10.5c0-5.8,5.3-5.5,11.1-5
		C122.1,439.4,125.5,440.4,125.5,443.8z"/>
	<path class="st20" d="M101.8,569.6l8.2,0.2h-2.3L26.5,568c0,0-9-3.3-15.5-8c0,0,7.4-10.3,15.8-9.3c7.6,0.9,20.5,2.8,22.5,3.1
		c0.1,0.1,0.3,0.2,0.5,0.3c9.3,6.8,19.2,14.8,19.2,14.8L101.8,569.6z"/>
	<path class="st20" d="M192.5,547.1c-0.5,2.9-1.3,5.6-2.5,7.2c-0.2,0.3-0.5,0.6-0.7,0.9c-0.5,0.5-1.2,1.1-2,1.8c0,0,0,0,0,0
		c-5.9,4.7-18.1,12.8-18.1,12.8h-55.3c2.5-1.4,29.1-15.5,40.6-23.3c0,0,0,0,0,0c0,0,0,0,0,0c1.2-0.8,2.2-1.5,3-2.2c0,0,0,0,0,0
		c4.7-2.8,13.2-7.5,16.7-7.5c4.9,0,14.1,0.7,17.7,8.6C192.2,545.8,192.4,546.4,192.5,547.1z"/>
	<path class="st12" d="M59,525.2l-6,3.1c-1.4,0.7-3.2,0.2-4-1.2c-1.1-1.9-0.6-2.3-2.1-3.8c-0.4-0.4-1-0.6-1.6-0.5
		c-6.1,0.8-20-1.2-21-1.5c0.3-3.2,1.4-2.5,1.4-2.5s3.3,0.9,12.7,2.2c9.4,1.4,9.6-5.1,9.6-5.1s7.2,4.7,10.1,4.7
		c1.1,0,0.3-1.4,1.4-0.6C61.2,521.4,61,524.2,59,525.2z"/>
	<path class="st10" d="M42.4,514.5c-0.4,0.4-0.2,1.1,0.4,1.3c1.3,0.4,1.4-0.5,3.2,2.4c2.2,3.6,3.3,4.8,3.8,6
		c0.5,1.3,1.3,1.5,1.7,1.3c0.3-0.2,1.4-0.9,2.1-1c1.1-0.2,2.1-1.5,3.4-1.8c1-0.2,1.7-1.5,2.3-1.8c0.8-0.4,2.2-0.5,1.8-1.8
		c-1-3.6-10-4.5-11.3-5.1c-0.1-0.1-1.9-4-1.9-4c-0.3-0.4-0.9-0.4-1.2-0.1L42.4,514.5z"/>
	<g>
		<path class="st18" d="M38.4,516c0,0,7.7,5.2,6.3,2.7c-1.4-2.5-1-4.8-1.2-6c-0.2-1.2,1.4,1.8,1.9,2.2c0.5,0.3,1.2-4.8,1.2-4.8
			s2,0.5,1.9,3.1c1.6-2.1,0-7.6,0-7.6"/>
		<path class="st21" d="M38.5,515.9c1.6,1,3.2,2,4.9,2.8c0.4,0.2,0.9,0.4,1.2,0.4c0,0,0.1,0,0.1,0c0,0,0,0.1,0,0c0,0,0-0.1-0.1-0.2
			l-0.3-0.6c-0.4-0.9-0.7-1.8-0.8-2.8c-0.1-1-0.1-1.9-0.2-2.8c0-0.1,0-0.1,0-0.2c0,0,0-0.1,0.1-0.3c0,0,0.1-0.1,0.2-0.1
			c0,0,0.1,0,0.1,0c0.1,0,0.1,0,0.1,0.1c0.2,0.1,0.2,0.2,0.3,0.3c0.2,0.2,0.3,0.4,0.4,0.6c0.3,0.4,0.5,0.8,0.8,1.1
			c0.1,0.1,0.1,0.2,0.2,0.2c0,0,0.1,0.1,0.1,0.1l0,0l0,0c0,0-0.1-0.1-0.1,0l0,0l0,0c-0.1,0-0.2,0-0.2,0c0,0,0.2-0.3,0.2-0.5
			c0.1-0.4,0.2-0.9,0.3-1.3c0.2-0.9,0.3-1.8,0.5-2.8l0-0.3l0.3,0.1l0,0c0.2,0.1,0.3,0.1,0.5,0.2c0.2,0.1,0.3,0.2,0.4,0.3
			c0.3,0.2,0.5,0.5,0.7,0.8c0.2,0.3,0.3,0.6,0.4,1c0.1,0.3,0.1,0.7,0.1,1l-0.4-0.1c0.4-0.5,0.5-1.1,0.6-1.7c0.1-0.6,0.1-1.3,0.1-1.9
			c-0.1-1.3-0.3-2.6-0.6-3.8l0.3-0.1c0.4,1.3,0.6,2.5,0.7,3.9c0.1,0.7,0.1,1.3,0,2c-0.1,0.7-0.3,1.3-0.7,1.9l-0.4,0.5l0-0.6
			c0-0.3,0-0.6-0.1-0.9c-0.1-0.3-0.2-0.6-0.3-0.8c-0.2-0.3-0.4-0.5-0.6-0.7c-0.1-0.1-0.2-0.2-0.4-0.2c-0.1-0.1-0.3-0.1-0.4-0.2h0
			l0.3-0.2c-0.1,0.9-0.3,1.9-0.4,2.8c-0.1,0.5-0.2,0.9-0.3,1.4c-0.1,0.2-0.1,0.5-0.4,0.8c0,0,0,0-0.1,0.1c-0.1,0-0.1,0-0.2,0l0,0
			l0,0l-0.1,0l0,0l0,0c-0.1-0.1-0.1-0.1-0.2-0.2c-0.1-0.1-0.2-0.2-0.2-0.3c-0.3-0.4-0.6-0.8-0.8-1.2c-0.1-0.2-0.3-0.4-0.4-0.6
			c-0.1-0.1-0.2-0.2-0.2-0.2c0,0,0,0,0,0c0,0,0.1,0,0.1,0c0,0,0.1,0,0.1-0.1c0.1-0.1,0-0.1,0-0.1c0,0,0,0.1,0,0.1
			c0.1,0.5,0.1,1,0.1,1.4c0,0.5,0,0.9,0.1,1.4c0.1,0.9,0.4,1.8,0.7,2.6l0.3,0.6c0.1,0.1,0.1,0.2,0.1,0.5c0,0.1-0.1,0.3-0.2,0.3
			c-0.1,0.1-0.2,0.1-0.3,0.1c-0.6-0.1-1-0.3-1.4-0.5c-1.7-0.9-3.3-1.9-4.8-3L38.5,515.9z"/>
	</g>
	<path class="st12" d="M161.9,516.4c0,0-11.3,5.7-14.2,6.2c-2,0.3-4.3-0.5-5.5-1c-0.5-0.2-1.1,0-1.3,0.5l-0.8,1.9
		c0,0-0.8,2.3-2.8,2.9c-0.8,0.3-3.8-1.1-3.8-1.1v0.2c0.8,0.1,1.7-0.1,2.3,0c1.1,0.1,2-1.2,2.3-1.9c0.7-1.5,2.1-3.3,1.9-4.9
		c4,1.4,7.2,1.7,9.8,0.9C152.3,519.4,158.7,516.4,161.9,516.4z"/>
	<path class="st10" d="M139.7,519c0.1,0.2,0.1,0.4,0.2,0.6c0.1,1.6-1.9,3.7-2.6,5.1c-0.4,0.7-1.1,1-1.8,1c-0.6,0-1.3-0.1-2.1-0.2
		c-1.3-0.3-2.5-1.6-3.5-2.9c-1.9-2.6-5.6-2.9-3.9-6.1c1.6-3.1,1.4-3.3,3.9-3.8c1.7-0.3,3.2,1.7,4.3,1.7c0.6,0,1-0.6,2.1-1.6
		c3.7-3.3,7.8,4.3,7.8,4.3S139.2,518,139.7,519z"/>
	<path class="st12" d="M153.6,546.2c0,0,2-0.5,2-0.5c-11.5,7.9-38.3,22-40.8,24h-8.4l-38.6-0.8c0,0-9.7-8.6-19.1-15.4
		c5.6,0.2,40.7,12,58.8,7.8c17.8-4.1,30.3-8.6,40.5-13.3C150,547.1,153.6,546.2,153.6,546.2z"/>
	<g>
		<path class="st18" d="M138.5,507.5c0,0-1.8,4.3-2.9,4.8c-0.1,0.5,2.9-0.4,2.9-0.4s-0.9,5.2-0.5,4.5c1.1-1.9,3.7-2.5,3.7-2.5
			s-1.6,3.3-1.3,3.8c1-0.4,4.6-0.2,4.6-0.2"/>
		<path class="st21" d="M138.6,507.6c-0.3,0.9-0.7,1.8-1.1,2.6c-0.2,0.4-0.5,0.8-0.7,1.2c-0.1,0.2-0.3,0.4-0.4,0.6
			c-0.2,0.2-0.3,0.4-0.6,0.5l0.1-0.2c0,0,0-0.1,0-0.1c0,0,0,0,0,0c0,0,0.1,0,0.1,0c0.1,0,0.2,0,0.3,0c0.2,0,0.5-0.1,0.7-0.1
			c0.5-0.1,1-0.3,1.4-0.4l0.4-0.1l-0.1,0.4l-0.4,2.3l-0.1,1.1l-0.1,0.6l0,0.3l0,0.1c0,0,0,0,0,0c0,0,0,0,0,0c0,0-0.1-0.1-0.1-0.1
			c-0.1,0-0.1,0-0.1,0c-0.2,0.1-0.1,0.1-0.1,0.1l0-0.1l0.1-0.1c0.1-0.1,0.1-0.2,0.2-0.2c0.1-0.2,0.3-0.3,0.4-0.5
			c0.3-0.3,0.6-0.5,1-0.8c0.7-0.4,1.4-0.8,2.2-1l0.6-0.2L142,514c-0.3,0.6-0.6,1.2-0.8,1.8c-0.1,0.3-0.3,0.6-0.4,0.9
			c-0.1,0.2-0.1,0.3-0.1,0.5c0,0.1,0,0.1,0,0.2c0,0.1,0,0.1,0,0.1l-0.3-0.1c0.4-0.1,0.8-0.1,1.2-0.2c0.4,0,0.8,0,1.2,0
			c0.8,0,1.5,0.1,2.3,0.1l0,0.3c-0.8,0-1.5,0-2.3,0c-0.4,0-0.8,0-1.1,0.1c-0.4,0-0.8,0.1-1.1,0.2l-0.2,0.1l-0.1-0.2
			c-0.1-0.2-0.1-0.3-0.1-0.4c0-0.1,0-0.2,0-0.3c0-0.2,0.1-0.3,0.1-0.5c0.1-0.3,0.2-0.6,0.4-1c0.3-0.6,0.5-1.2,0.8-1.9l0.3,0.4
			c-0.7,0.2-1.4,0.5-2,0.9c-0.3,0.2-0.6,0.4-0.9,0.7c-0.1,0.1-0.3,0.3-0.4,0.4c-0.1,0.1-0.1,0.2-0.2,0.2l-0.1,0.1l0,0.1
			c0,0,0,0.1-0.2,0.2c-0.1,0-0.3-0.1-0.3-0.1c0,0,0-0.1,0-0.1c0-0.1,0-0.1,0-0.1l0-0.2l0-0.3l0.1-0.6l0.2-1.2l0.4-2.3l0.3,0.3
			c-0.5,0.2-1,0.3-1.5,0.4c-0.3,0.1-0.5,0.1-0.8,0.2c-0.1,0-0.3,0-0.4,0c-0.1,0-0.2,0-0.3,0c-0.1,0-0.1,0-0.2-0.1
			c-0.1-0.1-0.1-0.2-0.1-0.3l0-0.1l0.1-0.1c0.1-0.1,0.3-0.2,0.4-0.4c0.1-0.2,0.3-0.4,0.4-0.5c0.3-0.4,0.5-0.8,0.7-1.2
			c0.4-0.8,0.8-1.7,1.3-2.5L138.6,507.6z"/>
	</g>
	<circle class="st17" cx="114.5" cy="446.6" r="7.1"/>
	<ellipse class="st18" cx="119.9" cy="444.3" rx="3.2" ry="2.7"/>
	<ellipse class="st18" cx="115.6" cy="446.7" rx="1" ry="1.2"/>
	<g>
		<path class="st18" d="M207.4,107.8c0,0-3.5-2.4-3.8-3.5c-0.5-0.2-0.2,2.7-0.2,2.7s-4.5-1.8-4-1.3c1.5,1.4,1.5,3.8,1.5,3.8
			s-2.6-2.1-3.1-1.9c0.3,1.5-0.6,3.6-0.6,3.6"/>
		<path class="st21" d="M207.3,107.9c-0.8-0.4-1.5-0.9-2.2-1.5c-0.3-0.3-0.7-0.6-1-0.9c-0.2-0.2-0.3-0.3-0.5-0.5
			c-0.1-0.2-0.3-0.4-0.4-0.7l0.2,0.2c0,0,0.1,0,0.1,0c0,0,0,0,0,0c0,0,0,0.1,0,0.1c0,0.1,0,0.2,0,0.3c0,0.2,0,0.4,0,0.7
			c0,0.5,0,0.9,0.1,1.4l0,0.4l-0.4-0.2l-2-0.8l-1-0.3l-0.5-0.2l-0.2-0.1l-0.1,0c0,0,0,0,0,0c0,0,0,0,0,0c0,0,0.1,0,0.1-0.1
			c0-0.1,0-0.1,0-0.1c0-0.2,0-0.1,0-0.1l0,0l0.1,0.1c0.1,0.1,0.1,0.1,0.2,0.2c0.1,0.2,0.2,0.3,0.3,0.5c0.2,0.3,0.4,0.7,0.5,1
			c0.3,0.7,0.4,1.4,0.5,2.2l0,0.6l-0.5-0.4c-0.5-0.4-1-0.8-1.5-1.1c-0.2-0.2-0.5-0.3-0.8-0.5c-0.1-0.1-0.3-0.1-0.4-0.2
			c-0.1,0-0.1-0.1-0.2-0.1c0,0-0.1,0-0.1,0l0.2-0.3l0,0c0.1,0.7,0,1.3-0.1,1.9c-0.1,0.6-0.3,1.2-0.6,1.8l-0.3-0.1
			c0.2-0.6,0.4-1.2,0.5-1.8c0.1-0.6,0.1-1.2,0-1.8l0,0l0-0.2l0.2-0.1c0.2-0.1,0.3,0,0.4,0c0.1,0,0.2,0.1,0.3,0.1
			c0.2,0.1,0.3,0.1,0.4,0.2c0.3,0.2,0.5,0.3,0.8,0.5c0.5,0.4,1,0.7,1.5,1.1l-0.4,0.2c0-0.7-0.2-1.4-0.4-2c-0.1-0.3-0.3-0.6-0.5-0.9
			c-0.1-0.1-0.2-0.3-0.3-0.4c0-0.1-0.1-0.1-0.2-0.2l-0.1-0.1l0-0.1c0,0-0.1,0-0.1-0.3c0-0.1,0.1-0.3,0.2-0.3c0,0,0.1,0,0.1,0
			c0.1,0,0.1,0,0.1,0l0.2,0l0.3,0.1l0.5,0.2l1,0.4l2,0.8l-0.4,0.3c0-0.5-0.1-0.9-0.1-1.4c0-0.2,0-0.5,0-0.7c0-0.1,0-0.2,0.1-0.4
			c0-0.1,0-0.1,0.1-0.2c0,0,0.1-0.1,0.1-0.2c0.1-0.1,0.2-0.1,0.3,0l0.1,0l0,0.1c0.1,0.3,0.4,0.6,0.7,0.9c0.3,0.3,0.6,0.6,0.9,0.9
			c0.7,0.6,1.3,1.1,2,1.7L207.3,107.9z"/>
	</g>
	<path class="st22" d="M68.5,44.1c1.5-3,6.9-3.2,4.3-5.3c3.1,1.4,3.6,0.8,2.7-2.5c0.9,3.2,2.1,2.3,3.8-1.8c-0.9,4.1,4.2,1.5,4.4,2.1
		"/>
</g>
<g id="Calque_5">
	<g>
		<polygon class="st23" points="97.4,486.9 80.9,486.6 72.8,495.1 97.4,528.8 97.5,528.8 121.8,495.1 113.8,486.6 97.5,486.9 		"/>
		<path class="st2" d="M118.8,493.9c-0.4,0.6-0.9,1.1-1.3,1.7c-0.9,1.2-1.8,2.4-2.7,3.6c-0.2,0.3-0.7,0.5-1.4,0.6
			c-0.6,0.1-1.1,0.1-1.7,0.1c-0.9,0-1.7,0-2.5,0c-4.8-0.1-9.2-0.2-13.5,0c-4.1,0.2-8,0.6-11.8,1.3c-0.1,0-0.3,0-0.3,0.1
			c-0.2,0-0.5,0-0.7,0.1c-0.1-0.1-0.2-0.2-0.2-0.3c-1.4-2.1-2.8-4.2-4.2-6.3c-0.1-0.2-0.1-0.3,0.3-0.3c4.4-0.7,8.8-1.1,13.3-1.3
			c6.4-0.3,12.9,0,19.8,0.6c1.4,0.1,2.8,0.2,4.1,0.3c1,0,1.9,0,2.6-0.2C118.6,493.9,118.7,493.9,118.8,493.9z"/>
		<path class="st2" d="M107.3,509.3c-1.3,1.8-2.6,3.6-4,5.3c-0.2,0.3-0.5,0.5-0.8,0.7c-0.5,0.3-1,0.5-1.4,0.7
			c-1.2,0.5-2.1,0.9-2.8,1.2c-1.3,0.6-2.2,1.2-3,1.7c-0.2,0.2-0.4,0.3-0.6,0.5c-0.1-0.1-0.1-0.2-0.2-0.3c-1.4-2.1-2.8-4.2-4.1-6.3
			c-0.1-0.2-0.1-0.3,0-0.3c0.5-0.1,0.9-0.2,1.3-0.4c0.1,0,0.2,0,0.2,0c1-0.3,2-0.5,3.1-0.8c0.6-0.1,1.2-0.3,1.8-0.4c0,0,0.1,0,0.1,0
			c1.8-0.3,3.7-0.5,5.8-0.8C104.2,510.1,105.7,510.1,107.3,509.3z"/>
		<path class="st24" d="M96.9,511.1c-0.4-0.2-0.9-0.2-1.3-0.3c-2-0.3-4.1-0.4-6.3-0.3c0,0-0.1,0-0.2,0c0.3-0.2,0.8-0.2,1.2-0.3
			c3.6-0.9,7.4-1.4,12-1.8c1.3-0.1,2.7-0.2,4.2-0.4c0.1,0,0.3,0,0.4-0.1c-0.1,0.1,0,0.1,0.1,0.2c0.2,0.2,0.4,0.4,0.5,0.7
			c0.1,0.2,0.1,0.4-0.1,0.6c-1.6,0.7-3.1,0.8-4.5,0.9c-2.1,0.3-4,0.5-5.8,0.8C96.9,511.1,96.9,511.1,96.9,511.1z"/>
		<path class="st24" d="M96.3,502.2c0-0.1-0.2-0.2-0.3-0.2c-2.5-0.4-5.1-0.6-7.7-0.7c-1.6,0-3.1,0-4.7,0c0-0.1,0.2-0.1,0.3-0.1
			c3.8-0.7,7.8-1.1,11.8-1.3c4.3-0.2,8.7-0.1,13.5,0c0.8,0,1.7,0,2.5,0c0.8,0.4,1.3,0.8,1.5,1.3c0,0.1,0,0.3-0.2,0.4
			c-2.4,0.6-4.8,0.4-7.2,0.4c-3,0-5.8,0-8.6,0.1C96.9,502.2,96.6,502.2,96.3,502.2z"/>
		<path class="st2" d="M113,501.6c-1.3,1.8-2.6,3.5-3.9,5.3c-0.3,0.4-0.7,0.6-1.2,0.7c-0.3,0.1-0.7,0.1-1,0.2c-0.1,0-0.3,0-0.4,0.1
			c-1.5,0.2-2.9,0.3-4.2,0.4c-4.5,0.4-8.4,0.9-12,1.8c-0.4,0.1-0.8,0.1-1.2,0.3c-0.1,0-0.2,0-0.3,0.1c-0.1-0.1-0.1-0.2-0.2-0.2
			c-1.4-2.1-2.8-4.2-4.2-6.3c-0.1-0.2-0.1-0.3,0.2-0.3c0.9-0.2,1.7-0.3,2.6-0.5c0.7-0.1,1.3-0.2,2-0.3c2.3-0.3,4.6-0.6,7-0.7
			c0.3,0,0.6,0,0.8-0.1c2.7-0.1,5.6-0.1,8.5-0.1C108.1,502,110.6,502.3,113,501.6z"/>
	</g>
	<g>
		<polygon class="st23" points="111.9,122.8 95.4,122.6 87.3,131.1 111.9,164.8 112,164.8 136.3,131.1 128.3,122.6 112,122.8 		"/>
		<path class="st2" d="M133.3,129.9c-0.4,0.6-0.9,1.1-1.3,1.7c-0.9,1.2-1.8,2.4-2.7,3.6c-0.2,0.3-0.7,0.5-1.4,0.6
			c-0.6,0.1-1.1,0.1-1.7,0.1c-0.9,0-1.7,0-2.5,0c-4.8-0.1-9.2-0.2-13.5,0c-4.1,0.2-8,0.6-11.8,1.3c-0.1,0-0.3,0-0.3,0.1
			c-0.2,0-0.5,0-0.7,0.1c-0.1-0.1-0.2-0.2-0.2-0.3c-1.4-2.1-2.8-4.2-4.2-6.3c-0.1-0.2-0.1-0.3,0.3-0.3c4.4-0.7,8.8-1.1,13.3-1.3
			c6.4-0.3,12.9,0,19.8,0.6c1.4,0.1,2.8,0.2,4.1,0.3c1,0,1.9,0,2.6-0.2C133.1,129.9,133.2,129.9,133.3,129.9z"/>
		<path class="st2" d="M121.8,145.3c-1.3,1.8-2.6,3.6-4,5.3c-0.2,0.3-0.5,0.5-0.8,0.7c-0.5,0.3-1,0.5-1.4,0.7
			c-1.2,0.5-2.1,0.9-2.8,1.2c-1.3,0.6-2.2,1.2-3,1.7c-0.2,0.2-0.4,0.3-0.6,0.5c-0.1-0.1-0.1-0.2-0.2-0.3c-1.4-2.1-2.8-4.2-4.1-6.3
			c-0.1-0.2-0.1-0.3,0-0.3c0.5-0.1,0.9-0.2,1.3-0.4c0.1,0,0.2,0,0.2,0c1-0.3,2-0.5,3.1-0.8c0.6-0.1,1.2-0.3,1.8-0.4c0,0,0.1,0,0.1,0
			c1.8-0.3,3.7-0.5,5.8-0.8C118.7,146.1,120.2,146.1,121.8,145.3z"/>
		<path class="st24" d="M111.4,147.1c-0.4-0.2-0.9-0.2-1.3-0.3c-2-0.3-4.1-0.4-6.3-0.3c0,0-0.1,0-0.2,0c0.3-0.2,0.8-0.2,1.2-0.3
			c3.6-0.9,7.4-1.4,12-1.8c1.3-0.1,2.7-0.2,4.2-0.4c0.1,0,0.3,0,0.4-0.1c-0.1,0.1,0,0.1,0.1,0.2c0.2,0.2,0.4,0.4,0.5,0.7
			c0.1,0.2,0.1,0.4-0.1,0.6c-1.6,0.7-3.1,0.8-4.5,0.9c-2.1,0.3-4,0.5-5.8,0.8C111.4,147.1,111.4,147.1,111.4,147.1z"/>
		<path class="st24" d="M110.8,138.2c0-0.1-0.2-0.2-0.3-0.2c-2.5-0.4-5.1-0.6-7.7-0.7c-1.6,0-3.1,0-4.7,0c0-0.1,0.2-0.1,0.3-0.1
			c3.8-0.7,7.8-1.1,11.8-1.3c4.3-0.2,8.7-0.1,13.5,0c0.8,0,1.7,0,2.5,0c0.8,0.4,1.3,0.8,1.5,1.3c0,0.1,0,0.3-0.2,0.4
			c-2.4,0.6-4.8,0.4-7.2,0.4c-3,0-5.8,0-8.6,0.1C111.4,138.2,111.1,138.2,110.8,138.2z"/>
		<path class="st2" d="M127.5,137.6c-1.3,1.8-2.6,3.5-3.9,5.3c-0.3,0.4-0.7,0.6-1.2,0.7c-0.3,0.1-0.7,0.1-1,0.2
			c-0.1,0-0.3,0-0.4,0.1c-1.5,0.2-2.9,0.3-4.2,0.4c-4.5,0.4-8.4,0.9-12,1.8c-0.4,0.1-0.8,0.1-1.2,0.3c-0.1,0-0.2,0-0.3,0.1
			c-0.1-0.1-0.1-0.2-0.2-0.2c-1.4-2.1-2.8-4.2-4.2-6.3c-0.1-0.2-0.1-0.3,0.2-0.3c0.9-0.2,1.7-0.3,2.6-0.5c0.7-0.1,1.3-0.2,2-0.3
			c2.3-0.3,4.6-0.6,7-0.7c0.3,0,0.6,0,0.8-0.1c2.7-0.1,5.6-0.1,8.5-0.1C122.6,138,125.1,138.3,127.5,137.6z"/>
	</g>
</g>
<g id="Calque_4" class="st25">
	<circle class="st26" cx="96.8" cy="508.9" r="26.5"/>
	<ellipse class="st27" cx="96.7" cy="509" rx="25.8" ry="26"/>
	<g class="st28">
		<path class="st2" d="M109.1,489.3c0,0.9,0,1.8,0,2.7c0,1.9,0,3.8,0,5.7c0,0.5-0.2,0.9-0.6,1.2c-0.3,0.3-0.6,0.5-1,0.8
			c-0.5,0.2-1.1,0.5-1.6,0.7c-3.1,1.2-6.3,1.9-9.6,2.5c-3.1,0.5-6.2,0.9-9.3,1.2c-0.1,0-0.2,0-0.2,0.1c-0.2,0-0.4,0-0.5,0
			c-0.1-0.1,0-0.2,0-0.4c0-2.8,0-5.6,0-8.4c0-0.2,0-0.3,0.3-0.4c2.7-0.3,5.3-0.6,8-1.1c3.8-0.6,7.5-1.3,11.1-2.5
			c0.7-0.3,1.4-0.6,2.1-1c0.5-0.3,0.9-0.6,1.1-1.1C109,489.4,109.1,489.4,109.1,489.3z"/>
		<path class="st2" d="M109.1,513.6c0,2.8,0,5.6,0,8.4c0,0.5-0.2,0.8-0.5,1.1c-0.6,0.6-1.3,0.9-2,1.3c-2,0.9-4.1,1.5-6.2,1.9
			c-3.6,0.8-7.2,1.3-10.9,1.7c-1,0.1-2,0.2-3,0.3c-0.1-0.1,0-0.2,0-0.4c0-2.8,0-5.6,0-8.4c0-0.3,0.1-0.4,0.4-0.4
			c0.8-0.1,1.5-0.1,2.3-0.3c0.1,0,0.2,0,0.4,0c1.6-0.2,3.3-0.4,4.9-0.7c0.9-0.1,1.8-0.3,2.7-0.5c0,0,0.1,0,0.1,0
			c2.6-0.5,5.1-1,7.6-1.8C106.3,515.6,108,515.1,109.1,513.6z"/>
		<path class="st2" d="M109.1,501.5c0,2.8,0,5.6,0,8.3c0,0.6-0.2,1-0.6,1.3c-0.2,0.2-0.5,0.4-0.8,0.6c-0.1,0.1-0.2,0.1-0.4,0.2
			c-1.3,0.7-2.7,1.2-4.1,1.6c-4.8,1.4-9.8,2-14.7,2.6c-0.5,0.1-1.1,0.1-1.6,0.2c-0.1,0-0.3,0-0.4,0c-0.1-0.1,0-0.2,0-0.3
			c0-2.8,0-5.6,0-8.4c0-0.3,0.1-0.4,0.3-0.4c0.8-0.1,1.6-0.2,2.4-0.3c0.6-0.1,1.2-0.1,1.8-0.2c2-0.3,4-0.6,6-0.9
			c0.2,0,0.5-0.1,0.7-0.1c2.3-0.4,4.5-0.8,6.7-1.5C106,503.6,107.9,503.2,109.1,501.5z"/>
		<path class="st24" d="M96.9,517.9c-0.6-0.2-1.2-0.3-1.9-0.4c-2.7-0.4-5.4-0.8-8.1-1.1c-0.1,0-0.1,0-0.2-0.1
			c0.5-0.2,1.1-0.2,1.6-0.2c5-0.6,9.9-1.2,14.7-2.6c1.4-0.4,2.8-0.9,4.1-1.6c0.1-0.1,0.2-0.1,0.4-0.2c0,0.2,0.1,0.2,0.2,0.3
			c0.3,0.2,0.6,0.5,0.9,0.8c0.2,0.3,0.4,0.5,0.3,0.9c-1.1,1.5-2.8,1.9-4.4,2.5c-2.5,0.8-5.1,1.3-7.6,1.8
			C97,517.9,97,517.9,96.9,517.9z"/>
		<path class="st24" d="M96.8,505.8c0-0.2-0.2-0.1-0.3-0.2c-2-0.4-4-0.6-6.1-0.9c-1.2-0.2-2.4-0.2-3.6-0.5c0-0.1,0.2-0.1,0.2-0.1
			c3.1-0.3,6.2-0.7,9.3-1.2c3.2-0.6,6.5-1.2,9.6-2.5c0.5-0.2,1.1-0.5,1.6-0.7c0.6,0.3,1.1,0.7,1.4,1.2c0.1,0.2,0.2,0.3,0.1,0.5
			c-1.2,1.7-3.1,2.1-4.9,2.6c-2.2,0.7-4.4,1.1-6.7,1.5C97.3,505.7,97,505.8,96.8,505.8z"/>
	</g>
</g>
</svg>
